<svg width="222" height="96" viewBox="0 0 222 96" fill="none" xmlns="http://www.w3.org/2000/svg">
<rect width="221.627" height="96" fill="white"/>
<path d="M41.6523 45.6472H51.7808C54.7913 45.6472 57.6784 44.4535 59.8071 42.3288C61.9358 40.2041 63.1317 37.3223 63.1317 34.3175V20.0625H47.5402C45.9784 20.0633 44.4808 20.6831 43.3767 21.7857C42.2726 22.8883 41.6523 24.3834 41.6523 25.9423V45.6472Z" fill="#3EA3DC"/>
<path d="M36.8148 20.0625H25.4377C23.8759 20.0633 22.3783 20.6831 21.2742 21.7857C20.17 22.8883 19.5498 24.3834 19.5498 25.9423V59.3503C19.5494 60.1224 19.7014 60.8871 19.9971 61.6006C20.2928 62.3141 20.7264 62.9625 21.2731 63.5088C21.8199 64.055 22.4691 64.4885 23.1836 64.7843C23.8982 65.0801 24.6641 65.2326 25.4377 65.233H33.8781C34.6588 65.2322 35.4072 64.9221 35.9589 64.3709C36.5107 63.8196 36.8206 63.0723 36.8206 62.2931L36.8148 20.0625Z" fill="#FFCC00"/>
<path d="M53.7017 50.9699H41.6523V62.2996C41.6523 63.0793 41.9627 63.8271 42.515 64.3784C43.0674 64.9298 43.8166 65.2395 44.5977 65.2395H57.4504C58.9536 65.2387 60.3949 64.6422 61.4576 63.581C62.5202 62.5198 63.1171 61.0808 63.1171 59.5805V51.6003H63.1346V45.9297C62.1003 47.4807 60.6979 48.7525 59.0521 49.6318C57.4064 50.5112 55.5684 50.9709 53.7017 50.9699Z" fill="#86BC25"/>
<path d="M78.534 20.9998C78.9083 21.3665 79.2029 21.8062 79.3997 22.2915C79.5965 22.7768 79.6912 23.2972 79.6778 23.8206C79.6915 24.3392 79.5968 24.855 79.3999 25.3351C79.203 25.8152 78.9081 26.2492 78.534 26.6094C78.1387 26.9844 77.672 27.2763 77.1615 27.4679C76.6511 27.6596 76.1073 27.747 75.5624 27.725C75.0271 27.7432 74.4937 27.6538 73.9937 27.4622C73.4937 27.2705 73.0374 26.9805 72.6519 26.6094C72.2779 26.2492 71.983 25.8152 71.7861 25.3351C71.5891 24.855 71.4945 24.3392 71.5081 23.8206C71.496 23.2987 71.5913 22.7799 71.788 22.2962C71.9847 21.8125 72.2788 21.3742 72.6519 21.0085C73.0335 20.6303 73.4886 20.334 73.9891 20.1376C74.4895 19.9413 75.025 19.8492 75.5624 19.8668C76.1089 19.8439 76.6543 19.9326 77.1653 20.1274C77.6762 20.3222 78.142 20.6191 78.534 20.9998Z" fill="#575756"/>
<path d="M79.6769 30.5664H71.5625V64.9853H79.6769V30.5664Z" fill="#575756"/>
<path d="M111.131 23.7976C114.236 26.1217 115.788 29.6019 115.788 34.2384C115.788 39.0898 114.225 42.7279 111.099 45.1526C107.973 47.5773 103.811 48.7897 98.6131 48.7897H93.4761V64.9853H85.1113V20.3203H98.0397C103.661 20.3203 108.025 21.4794 111.131 23.7976ZM104.76 40.6469C106.283 39.4035 107.044 37.2635 107.042 34.2267C107.042 29.0383 104.021 26.4441 97.9786 26.4441H93.4761V42.5148H97.9786C100.976 42.5226 103.237 41.9086 104.76 40.673V40.6469Z" fill="#575756"/>
<path d="M139.26 30.1218L137.866 37.9654C136.893 37.7174 135.893 37.5896 134.889 37.5849C132.901 37.5849 131.475 38.5319 130.197 39.7055C128.858 40.9344 127.534 42.9534 127.473 46.1896V64.9794H119.358V30.5663H126.393L127.156 37.1462C127.957 34.7408 129.121 32.8952 130.648 31.6092C132.107 30.3457 133.979 29.6595 135.91 29.6802C137.042 29.6694 138.17 29.818 139.26 30.1218Z" fill="#575756"/>
<path d="M168.701 46.5073C168.701 41.1949 167.411 37.0504 164.833 34.0737C162.254 31.097 158.62 29.6154 153.93 29.629C150.845 29.629 148.183 30.4037 145.944 31.953C143.656 33.55 141.874 35.7679 140.81 38.3441C139.626 41.0555 139.034 44.1232 139.034 47.5473C139.034 52.9468 140.419 57.2075 143.187 60.3295C145.956 63.4514 149.897 65.0114 155.01 65.0095C159.573 65.0095 163.714 63.5124 167.432 60.5183L166.532 53.889C165.757 54.6119 164.936 55.2834 164.073 55.8993C162.775 56.8162 161.37 57.5703 159.888 58.1449C158.549 58.6249 157.134 58.8621 155.711 58.845C153.346 58.845 151.444 58.1488 150.007 56.7563C148.569 55.3638 147.724 53.0398 147.472 49.7842H168.517C168.637 48.0266 168.701 46.9285 168.701 46.5073ZM160.659 44.5464H147.475C147.684 41.3431 148.35 39.0123 149.471 37.554C150.593 36.0956 152.145 35.3684 154.128 35.3723C158.482 35.3723 160.659 38.2996 160.659 44.1542V44.5464Z" fill="#575756"/>
<path d="M198.376 34.2336C200.404 37.3129 201.419 41.6366 201.42 47.2046C201.42 50.6616 200.902 53.7293 199.866 56.4078C198.83 59.0862 197.306 61.1846 195.294 62.703C193.286 64.2233 190.909 64.9825 188.163 64.9805C184.612 64.9805 181.799 63.7575 179.723 61.3115V74.8257L171.611 76.133V30.5645H178.71L179.152 34.6751C180.346 33.0867 181.886 31.7894 183.655 30.8812C185.311 30.048 187.141 29.6188 188.996 29.6291C193.222 29.6291 196.348 31.1639 198.376 34.2336ZM192.925 47.2656C192.925 43.1753 192.397 40.2228 191.341 38.4081C190.286 36.5934 188.701 35.6871 186.586 35.689C185.218 35.6911 183.886 36.1231 182.779 36.9236C181.541 37.8042 180.504 38.9357 179.734 40.2441V55.3009C181.298 57.625 183.348 58.787 185.884 58.787C190.58 58.7831 192.927 54.9427 192.925 47.2656Z" fill="#575756"/>
</svg>
