<svg width="44" height="43" viewBox="0 0 44 43" fill="none" xmlns="http://www.w3.org/2000/svg">
<rect x="1" width="43" height="43" rx="21.5" fill="#F5F5F4"/>
<path d="M27.6158 14.3293L16.2594 14.3293H16.2367C15.9009 14.3356 15.5802 14.4717 15.3424 14.7096L15.3424 14.7096C15.099 14.9528 14.9621 15.2827 14.9618 15.6267C14.9618 15.6267 14.9618 15.6268 14.9618 15.6268L14.9618 26.8108L19.2749 22.8713L27.6158 14.3293ZM27.6158 14.3293C27.6159 14.3293 27.6159 14.3293 27.6159 14.3293C27.96 14.3297 28.2899 14.4665 28.5331 14.7098L28.5332 14.7099C28.7765 14.9531 28.9134 15.2829 28.9138 15.627V23.1696M27.6158 14.3293L28.9138 23.1696M28.9138 23.1696L26.2557 20.5118C26.1686 20.4247 26.0506 20.3757 25.9273 20.3757C25.8041 20.3757 25.6859 20.4247 25.5988 20.5118L21.5708 24.5398L19.9167 22.8859L19.9166 22.8859L19.8459 22.9566L28.9138 23.1696ZM16.2593 30.0916H16.2594H27.6159H27.6161C28.2065 30.091 28.7726 29.8561 29.1899 29.4386C29.6075 29.0211 29.8423 28.4551 29.843 27.8648V27.8647V15.6268V15.6267C29.8422 15.0364 29.6075 14.4704 29.1899 14.0529C28.7725 13.6355 28.2065 13.4006 27.6161 13.4H27.6159L16.2594 13.4L16.2593 13.4C15.6688 13.4006 15.1028 13.6355 14.6854 14.0529C14.2678 14.4704 14.0331 15.0364 14.0323 15.6267V15.6268L14.0323 27.8647L14.0323 27.8648C14.0331 28.4551 14.2679 29.0211 14.6854 29.4386C15.1028 29.8561 15.6689 30.091 16.2593 30.0916ZM27.6321 29.1625H27.6159L16.2597 29.1625C16.2596 29.1625 16.2595 29.1625 16.2594 29.1625C15.9399 29.1614 15.6322 29.0423 15.3952 28.828L15.3281 28.9021L15.3952 28.828C15.1706 28.6248 15.0247 28.3497 14.9819 28.0508L19.5735 23.8569L21.2421 25.5254C21.3292 25.6125 21.4474 25.6615 21.5707 25.6615C21.6939 25.6615 21.8121 25.6125 21.8992 25.5254L25.9272 21.4974L28.9138 24.4837L28.9137 27.8647C28.9133 28.2088 28.7765 28.5386 28.5332 28.782C28.2937 29.0215 27.9703 29.1578 27.6321 29.1625Z" fill="#475569" stroke="#475569" stroke-width="0.2"/>
<path d="M20.2739 20.2247C20.7017 20.2248 21.1118 20.0549 21.4142 19.7525C21.7165 19.4502 21.8864 19.04 21.8864 18.6124C21.8864 18.1848 21.7165 17.7746 21.4142 17.4723C21.1118 17.1698 20.7016 17 20.274 17C19.8464 17 19.4362 17.1699 19.1339 17.4723C18.8315 17.7747 18.6616 18.1848 18.6616 18.6124C18.6621 19.0399 18.8322 19.4497 19.1344 19.7519C19.4366 20.0543 19.8466 20.2242 20.2739 20.2247L20.2739 20.2247ZM20.2739 17.7291C20.5082 17.7291 20.7329 17.8221 20.8985 17.9878C21.0642 18.1534 21.1572 18.378 21.1573 18.6123C21.1573 18.8465 21.0643 19.0711 20.8986 19.2368C20.733 19.4024 20.5084 19.4955 20.2741 19.4955C20.0399 19.4955 19.8151 19.4025 19.6495 19.2369C19.4839 19.0714 19.3909 18.8466 19.3909 18.6124C19.3911 18.3783 19.4842 18.1538 19.6498 17.9881C19.8153 17.8226 20.0398 17.7294 20.2739 17.7291L20.2739 17.7291Z" fill="#475569"/>
</svg>
