<svg width="35" height="35" viewBox="0 0 35 35" fill="none" xmlns="http://www.w3.org/2000/svg">
<circle cx="17.5" cy="17.5" r="17" stroke="#64748B"/>
<path d="M25.2002 18.5C25.7525 18.5 26.2002 18.0523 26.2002 17.5C26.2002 16.9477 25.7525 16.5 25.2002 16.5V18.5ZM9.09309 16.7929C8.70256 17.1834 8.70256 17.8166 9.09309 18.2071L15.4571 24.5711C15.8476 24.9616 16.4807 24.9616 16.8713 24.5711C17.2618 24.1805 17.2618 23.5474 16.8713 23.1569L11.2144 17.5L16.8713 11.8431C17.2618 11.4526 17.2618 10.8195 16.8713 10.4289C16.4807 10.0384 15.8476 10.0384 15.4571 10.4289L9.09309 16.7929ZM25.2002 16.5L9.8002 16.5V18.5H25.2002V16.5Z" fill="#64748B"/>
</svg>
