<svg width="65" height="65" viewBox="0 0 65 65" fill="none" xmlns="http://www.w3.org/2000/svg">
<circle cx="32.5" cy="32.5" r="32" fill="#F5F5F4" stroke="#475569"/>
<path fill-rule="evenodd" clip-rule="evenodd" d="M31.9999 19C30.9825 19 30.1578 19.8247 30.1578 20.8421V31.1584H19.8421C18.8247 31.1584 18 31.9831 18 33.0005C18 34.0178 18.8247 34.8426 19.8421 34.8426H30.1578V45.1579C30.1578 46.1753 30.9825 47 31.9999 47C33.0173 47 33.842 46.1753 33.842 45.1579V34.8426H44.1579C45.1753 34.8426 46 34.0178 46 33.0005C46 31.9831 45.1753 31.1584 44.1579 31.1584H33.842V20.8421C33.842 19.8247 33.0173 19 31.9999 19Z" fill="#475569"/>
</svg>
