<svg width="43" height="43" viewBox="0 0 43 43" fill="none" xmlns="http://www.w3.org/2000/svg">
<rect width="43" height="43" rx="21.5" fill="#F5F5F4"/>
<path d="M15.2594 30.0916H15.2593C14.6689 30.091 14.1028 29.8561 13.6854 29.4386C13.2679 29.0211 13.0331 28.4551 13.0323 27.8648L13.0323 27.8647L13.0323 15.6268V15.6267C13.0331 15.0364 13.2679 14.4704 13.6854 14.0529C14.1028 13.6355 14.6688 13.4006 15.2593 13.4L15.2594 13.4L26.6159 13.4H26.6161C27.2065 13.4006 27.7725 13.6355 28.1899 14.0529L15.2594 30.0916ZM15.2594 30.0916H26.6159H26.6161M15.2594 30.0916H26.6161M26.6161 30.0916C27.2065 30.091 27.7726 29.8561 28.1899 29.4386C28.6075 29.0211 28.8423 28.4551 28.843 27.8648V27.8647M26.6161 30.0916L28.843 27.8647M28.843 27.8647V15.6268V15.6267M28.843 27.8647V15.6267M28.843 15.6267C28.8422 15.0364 28.6075 14.4704 28.1899 14.0529L28.843 15.6267ZM26.6322 29.1625H26.6159L15.2597 29.1625C15.2596 29.1625 15.2595 29.1625 15.2594 29.1625C14.9399 29.1614 14.6322 29.0423 14.3952 28.828L14.331 28.899L14.3952 28.828C14.1706 28.6248 14.0247 28.3497 13.9819 28.0508L18.5735 23.8569L20.2421 25.5254C20.3292 25.6125 20.4474 25.6615 20.5707 25.6615C20.6939 25.6615 20.8121 25.6125 20.8992 25.5254L24.9272 21.4974L27.9138 24.4837L27.9137 27.8647L27.9137 27.8648M26.6322 29.1625L27.9137 27.8648M26.6322 29.1625C26.9704 29.1578 27.2937 29.0214 27.5332 28.782C27.7765 28.5387 27.9133 28.2088 27.9137 27.8648M26.6322 29.1625L27.9137 27.8648M27.9138 15.6269C27.9134 15.2829 27.7765 14.9531 27.5332 14.7099L27.5331 14.7098C27.2899 14.4665 26.96 14.3297 26.6159 14.3293C26.6159 14.3293 26.6159 14.3293 26.6159 14.3293L15.2594 14.3293H15.2367C14.9009 14.3356 14.5802 14.4717 14.3424 14.7096L14.3424 14.7096C14.099 14.9528 13.9621 15.2827 13.9618 15.6267C13.9618 15.6267 13.9618 15.6268 13.9618 15.6268L13.9618 26.8108L18.2749 22.8713L27.9138 15.6269ZM27.9138 15.6269C27.9138 15.6269 27.9138 15.627 27.9138 15.627M27.9138 15.6269L27.9138 15.627M27.9138 15.627L27.9138 23.1696L25.2557 20.5118C25.1686 20.4247 25.0506 20.3757 24.9273 20.3757C24.8041 20.3757 24.6859 20.4247 24.5988 20.5118L20.5708 24.5398L18.9167 22.8859L27.9138 15.627Z" fill="#475569" stroke="#475569" stroke-width="0.2"/>
<path d="M19.2739 20.2247C19.7017 20.2248 20.1118 20.0549 20.4142 19.7525C20.7165 19.4502 20.8864 19.04 20.8864 18.6124C20.8864 18.1848 20.7165 17.7746 20.4142 17.4723C20.1118 17.1698 19.7016 17 19.274 17C18.8464 17 18.4362 17.1699 18.1339 17.4723C17.8315 17.7747 17.6616 18.1848 17.6616 18.6124C17.6621 19.0399 17.8322 19.4497 18.1344 19.7519C18.4366 20.0543 18.8466 20.2242 19.2739 20.2247L19.2739 20.2247ZM19.2739 17.7291C19.5082 17.7291 19.7329 17.8221 19.8985 17.9878C20.0642 18.1534 20.1572 18.378 20.1573 18.6123C20.1573 18.8465 20.0643 19.0711 19.8986 19.2368C19.733 19.4024 19.5084 19.4955 19.2741 19.4955C19.0399 19.4955 18.8151 19.4025 18.6495 19.2369C18.4839 19.0714 18.3909 18.8466 18.3909 18.6124C18.3911 18.3783 18.4842 18.1538 18.6498 17.9881C18.8153 17.8226 19.0398 17.7294 19.2739 17.7291L19.2739 17.7291Z" fill="#475569"/>
</svg>
