<svg width="24" height="24" viewBox="0 0 24 24" fill="none" xmlns="http://www.w3.org/2000/svg">
<path d="M19 2H5C4.46957 2 3.96086 2.21071 3.58579 2.58579C3.21071 2.96086 3 3.46957 3 4V18C3 18.5304 3.21071 19.0391 3.58579 19.4142C3.96086 19.7893 4.46957 20 5 20H9L12 23L15 20H19C20.1 20 21 19.1 21 18V4C21 2.9 20.1 2 19 2ZM19 18H14.17L13.58 18.59L12 20.17L10.41 18.58L9.83 18H5V4H19V18Z" fill="#64748B"/>
<path d="M13.0236 8.39088C13.6838 8.39088 14.219 7.85567 14.219 7.19544C14.219 6.53522 13.6838 6 13.0236 6C12.3633 6 11.8281 6.53522 11.8281 7.19544C11.8281 7.85567 12.3633 8.39088 13.0236 8.39088Z" fill="#64748B"/>
<path d="M14.2459 13.2438C14.2129 13.2216 14.1758 13.2062 14.1367 13.1986C14.0977 13.1909 14.0575 13.1911 14.0185 13.1992C13.9795 13.2072 13.9426 13.223 13.9098 13.2456C13.877 13.2681 13.849 13.297 13.8275 13.3305C13.5386 13.7584 13.1847 14.1385 12.7785 14.4572C12.6799 14.5319 12.3123 14.8159 12.1569 14.7561C12.0493 14.7232 12.1121 14.511 12.133 14.4214L12.2914 13.9521C12.3571 13.7609 13.5018 10.3658 13.6273 9.9773C13.8126 9.40946 13.7319 8.85059 12.8861 8.98508C12.656 9.00899 10.3219 9.31084 10.2801 9.31383C10.2408 9.31638 10.2025 9.32664 10.1672 9.34401C10.1319 9.36139 10.1004 9.38554 10.0744 9.4151C10.0485 9.44465 10.0286 9.47903 10.0159 9.51627C10.0033 9.5535 9.99808 9.59287 10.0006 9.63212C10.0032 9.67136 10.0134 9.70972 10.0308 9.74501C10.0482 9.78029 10.0723 9.8118 10.1019 9.83775C10.1315 9.8637 10.1658 9.88357 10.2031 9.89623C10.2403 9.9089 10.2797 9.9141 10.3189 9.91155C10.3189 9.91155 11.2155 9.79499 11.3141 9.78603C11.3646 9.7811 11.4155 9.79089 11.4606 9.81422C11.5057 9.83755 11.543 9.87343 11.5682 9.91753C11.6223 10.0849 11.6149 10.2662 11.5472 10.4286C11.4695 10.7274 10.2412 14.1882 10.2024 14.3885C10.1607 14.556 10.1723 14.7324 10.2355 14.8931C10.2987 15.0538 10.4104 15.1908 10.555 15.2851C10.8265 15.466 11.1498 15.5531 11.4755 15.5331C11.7922 15.5292 12.1053 15.4664 12.399 15.3478C13.1431 15.049 13.9202 14.254 14.3296 13.6294C14.3649 13.5659 14.3758 13.4918 14.3604 13.4208C14.345 13.3499 14.3043 13.287 14.2459 13.2438Z" fill="#64748B"/>
</svg>
