<svg width="98" height="209" viewBox="0 0 98 209" fill="none" xmlns="http://www.w3.org/2000/svg">
<path d="M49.3897 114.275H71.9367C75.2553 114.277 78.5417 113.625 81.608 112.356C84.6744 111.087 87.4606 109.226 89.8072 106.879C92.1538 104.532 94.0149 101.746 95.2839 98.6799C96.553 95.6136 97.2052 92.3272 97.2033 89.0086V57.1328H62.5021C60.7798 57.1316 59.0742 57.4699 57.4828 58.1284C55.8913 58.7869 54.4453 59.7527 53.2275 60.9706C52.0096 62.1884 51.0438 63.6345 50.3852 65.2259C49.7267 66.8173 49.3884 68.523 49.3897 70.2452V114.275Z" fill="#3EA3DC"/>
<path d="M38.5679 57.1328H13.1955C11.4732 57.1316 9.76755 57.4699 8.17612 58.1284C6.58469 58.7869 5.13868 59.7527 3.92084 60.9706C2.70299 62.1884 1.73713 63.6345 1.07861 65.2259C0.42008 66.8173 0.0817775 68.523 0.0830112 70.2452V144.817C0.0817775 146.539 0.42008 148.245 1.07861 149.837C1.73713 151.428 2.70299 152.874 3.92084 154.092C5.13868 155.31 6.58469 156.276 8.17612 156.934C9.76755 157.593 11.4732 157.931 13.1955 157.93H32.0124C32.8736 157.93 33.7266 157.761 34.5224 157.432C35.3182 157.103 36.0414 156.62 36.6504 156.011C37.2594 155.402 37.7423 154.679 38.0716 153.883C38.4009 153.087 38.5699 152.234 38.5692 151.373L38.5679 57.1328Z" fill="#FFCC00"/>
<path d="M76.2025 126.164H49.3369V151.43C49.3362 152.291 49.5053 153.144 49.8345 153.94C50.1638 154.736 50.6468 155.459 51.2558 156.068C51.8648 156.677 52.5879 157.16 53.3838 157.489C54.1796 157.819 55.0325 157.988 55.8938 157.987H84.5179C86.1771 157.988 87.8201 157.662 89.3532 157.027C90.8862 156.393 92.2792 155.462 93.4525 154.289C94.6257 153.116 95.5562 151.723 96.1907 150.19C96.8252 148.657 97.1513 147.014 97.1505 145.354V127.55H97.2041V114.863C94.919 118.344 91.8019 121.201 88.1348 123.174C84.4678 125.147 80.3667 126.175 76.2025 126.164Z" fill="#86BC25"/>
<path d="M5.36056 167.797C5.64261 168.074 5.86402 168.406 6.01076 168.773C6.15751 169.14 6.22637 169.534 6.21299 169.929C6.23133 170.317 6.1645 170.704 6.01723 171.063C5.86996 171.422 5.64583 171.745 5.36056 172.008C4.75124 172.569 3.95013 172.874 3.12223 172.862C2.71841 172.88 2.31519 172.814 1.93864 172.667C1.5621 172.52 1.22054 172.295 0.936097 172.008C0.654934 171.742 0.433584 171.419 0.286629 171.06C0.139675 170.702 0.0704848 170.316 0.0836657 169.929C0.0702881 169.534 0.13915 169.14 0.285893 168.773C0.432637 168.406 0.654042 168.074 0.936097 167.797C1.22066 167.51 1.56227 167.286 1.93881 167.139C2.31535 166.992 2.71851 166.926 3.12223 166.944C3.5348 166.916 3.94856 166.977 4.33502 167.125C4.72149 167.272 5.07142 167.501 5.36056 167.797Z" fill="#575756"/>
<path d="M6.26749 174.938H0.19043V200.736H6.26749V174.938Z" fill="#575756"/>
<path d="M29.7205 169.874C30.8984 170.794 31.831 171.99 32.4355 173.357C33.0399 174.724 33.2975 176.219 33.1852 177.71C33.2936 179.251 33.0306 180.797 32.4185 182.216C31.8063 183.635 30.8627 184.886 29.6669 185.866C26.9512 187.794 23.6648 188.752 20.3381 188.584H16.5008V200.738H10.2656V167.262H19.9159C24.1782 167.262 27.4298 168.168 29.7205 169.874ZM24.977 182.507C25.5984 181.883 26.0737 181.129 26.3685 180.3C26.6633 179.47 26.7704 178.586 26.682 177.71C26.682 173.823 24.4436 171.899 19.9119 171.899H16.5544V183.946H19.9119C21.7147 184.055 23.5009 183.547 24.977 182.507Z" fill="#575756"/>
<path d="M50.7765 174.623L49.7042 180.486C48.9744 180.292 48.2208 180.202 47.4658 180.218C46.8022 180.235 46.1489 180.386 45.5445 180.66C44.9401 180.935 44.397 181.328 43.9475 181.817C43.2889 182.438 42.7683 183.191 42.4195 184.027C42.0706 184.863 41.9012 185.762 41.9222 186.667V200.741H35.8506V174.942H41.1288L41.7145 179.845C42.1839 178.245 43.0882 176.807 44.3268 175.69C45.4205 174.743 46.8244 174.23 48.2714 174.251C49.1174 174.285 49.9572 174.409 50.7765 174.623Z" fill="#575756"/>
<path d="M72.7909 186.878C72.9953 183.523 71.9725 180.208 69.9132 177.551C68.8936 176.414 67.6308 175.522 66.2187 174.941C64.8067 174.359 63.2817 174.104 61.7573 174.193C59.6408 174.146 57.5596 174.74 55.7875 175.898C54.0961 177.119 52.769 178.778 51.9487 180.696C51.0227 182.868 50.5686 185.212 50.6164 187.572C50.4139 191.045 51.5169 194.467 53.7086 197.168C54.8332 198.369 56.2092 199.308 57.7384 199.916C59.2676 200.524 60.9122 200.787 62.5548 200.686C65.9454 200.694 69.2299 199.505 71.8299 197.329L71.1369 192.369C70.5532 192.913 69.9295 193.412 69.2712 193.863C68.2929 194.552 67.2376 195.124 66.1268 195.569C65.1204 195.941 64.0538 196.122 62.981 196.105C61.4114 196.169 59.8795 195.614 58.7161 194.558C57.4844 193.094 56.8052 191.244 56.7967 189.331H72.5215C72.6702 188.521 72.7602 187.701 72.7909 186.878ZM66.7675 185.44H56.9053C56.8841 183.589 57.403 181.773 58.3984 180.213C58.803 179.682 59.3284 179.255 59.9309 178.967C60.5335 178.68 61.1959 178.54 61.8632 178.56C65.1149 178.56 66.7675 180.746 66.7675 185.169V185.44Z" fill="#575756"/>
<path d="M94.9643 177.71C96.6393 180.658 97.4347 184.025 97.2562 187.411C97.3115 189.757 96.9133 192.092 96.0834 194.287C95.412 196.141 94.2294 197.768 92.6723 198.978C91.1347 200.124 89.2589 200.724 87.3418 200.683C86.1502 200.74 84.9617 200.52 83.87 200.039C82.7783 199.558 81.8134 198.829 81.0517 197.911V208.039L74.9746 208.998V174.884H80.3051L80.6254 177.977C81.505 176.782 82.6558 175.814 83.983 175.151C85.2217 174.521 86.5915 174.192 87.9811 174.191C89.349 174.131 90.7095 174.422 91.9323 175.039C93.155 175.655 94.1991 176.574 94.9643 177.71ZM90.8602 187.465C91.0258 185.198 90.6227 182.926 89.6874 180.854C89.3386 180.218 88.8198 179.692 88.1889 179.335C87.5581 178.977 86.8401 178.802 86.1154 178.829C85.103 178.835 84.1167 179.152 83.29 179.736C82.3556 180.398 81.5741 181.252 80.9981 182.242V193.542C81.4678 194.339 82.138 195 82.9421 195.458C83.7463 195.917 84.6564 196.157 85.582 196.154C89.154 196.099 90.8602 193.224 90.8602 187.461V187.465Z" fill="#575756"/>
<path d="M0.0849609 12.7745V0.0507812H1.65042V11.4047H7.57204V12.7745H0.0849609Z" fill="#575756"/>
<path d="M10.46 12.7745V0.0507812H18.1427V1.4206H11.9772V5.72708H17.7031V7.0969H11.9772V11.4034H18.2419V12.7732L10.46 12.7745Z" fill="#575756"/>
<path d="M22.0029 12.7745H20.3945L25.0857 0.0507812H26.7008L31.392 12.7745H29.7835L25.9663 2.05191H25.8684L22.0029 12.7745ZM22.59 7.78316H29.0986V9.15296H22.59V7.78316Z" fill="#575756"/>
<path d="M33.8994 12.7682V0.0444184H38.2059C39.0494 0.00608082 39.8894 0.174012 40.6533 0.533646C41.2586 0.829886 41.7552 1.30915 42.0728 1.90347C42.374 2.53027 42.5249 3.21864 42.5137 3.91396C42.5249 4.60929 42.374 5.29766 42.0728 5.92446C41.7552 6.51878 41.2586 6.99804 40.6533 7.29428C39.8894 7.65391 39.0494 7.82182 38.2059 7.78349H34.7318V6.41366H38.1576C38.7265 6.43363 39.2933 6.33363 39.821 6.12014C40.2139 5.95201 40.5406 5.65959 40.7512 5.28779C40.9566 4.87827 41.0575 4.42424 41.0447 3.96624C41.0575 3.50824 40.9566 3.05419 40.7512 2.64466C40.5439 2.25876 40.2177 1.94996 39.821 1.76407C39.2933 1.55054 38.7266 1.45053 38.1576 1.47054H35.4663V12.8245H33.8994V12.7682ZM39.8693 7.04229L43.0016 12.7682H41.1908L38.1081 7.04229H39.8693Z" fill="#575756"/>
<path d="M55.7259 0V12.7237H54.2516L47.302 2.74097H47.1545V12.7237H45.5957V0H47.07L54.0196 10.0324H54.1657V0H55.7259Z" fill="#575756"/>
<path d="M8.68308 20.4648H10.2486V28.8821C10.2711 29.7108 10.0497 30.5278 9.61192 31.2317C9.20557 31.9199 8.6114 32.4778 7.89904 32.8401C7.09585 33.2458 6.20511 33.4474 5.30551 33.4272C4.4059 33.4474 3.51517 33.2458 2.71197 32.8401C1.99962 32.4778 1.40536 31.9199 0.999011 31.2317C0.583149 30.5184 0.363443 29.7078 0.362305 28.8821V20.4648H1.92785V28.7843C1.92402 29.362 2.05819 29.9322 2.31922 30.4476C2.59453 30.9277 3.00207 31.3186 3.49331 31.5735C4.05142 31.8625 4.67647 31.9976 5.30412 31.9649C5.92961 31.9737 6.54889 31.8398 7.11492 31.5735C7.59568 31.3042 7.99977 30.9167 8.28902 30.4476C8.57245 29.9407 8.70811 29.3644 8.68047 28.7843V20.4648H8.68308Z" fill="#575756"/>
<path d="M23.9525 20.4648V33.1886H22.4781L15.5285 23.2058H15.3824V33.1886H13.8223V20.4648H15.2966L22.2462 30.4972H22.3936V20.4648H23.9525Z" fill="#575756"/>
<path d="M27.5723 33.2355V20.5117H29.1378V31.8657H35.0593V33.2355H27.5723Z" fill="#575756"/>
<path d="M39.5138 20.4648V33.1886H37.9482V20.4648H39.5138Z" fill="#575756"/>
<path d="M43.1357 20.4648H44.9948L49.3013 31.0347H49.4474L53.7538 20.4648H55.6142V33.1886H54.1949V23.4993H54.0487L50.084 33.1886H48.7143L44.7509 23.4993H44.6048V33.1886H43.1854V20.4648H43.1357Z" fill="#575756"/>
<path d="M60.8009 20.4648V33.1886H59.2354V20.4648H60.8009Z" fill="#575756"/>
<path d="M63.7373 21.8347V20.4648H73.2804V21.8347H69.2675V33.1886H67.702V21.8347H63.7373Z" fill="#575756"/>
<path d="M76.2158 33.2355V20.5117H83.8986V21.8815H77.7331V26.188H83.459V27.5578H77.7331V31.8643H83.9964V33.2341L76.2158 33.2355Z" fill="#575756"/>
<path d="M91.1915 33.2312H87.2764V20.5074H91.3872C92.4994 20.4693 93.6003 20.7402 94.5678 21.2902C95.4516 21.7961 96.1547 22.5662 96.5783 23.4924C97.0773 24.5455 97.3124 25.7043 97.2632 26.8687C97.283 28.0465 97.0494 29.2148 96.5783 30.2945C96.1514 31.2327 95.4299 32.0059 94.5235 32.4967C93.4794 32.9806 92.3423 33.2312 91.1915 33.2312ZM88.7936 31.8614H91.0937C91.9949 31.8988 92.8899 31.6962 93.6872 31.2743C94.3748 30.8805 94.9222 30.2816 95.2527 29.5614C95.6062 28.7095 95.773 27.7918 95.7419 26.87C95.7735 25.9638 95.6065 25.0617 95.2527 24.2269C94.9407 23.5099 94.4095 22.9102 93.7354 22.5139C92.9694 22.1029 92.1087 21.9004 91.2397 21.9269H88.7923L88.7936 31.8614Z" fill="#575756"/>
<path d="M2.14757 48.3711L0.365545 42.5224H1.30987L2.57404 47.0003H2.63497L3.88391 42.5224H4.84346L6.07718 46.9851H6.1381L7.40228 42.5224H8.3466L6.56457 48.3711H5.68117L4.40177 43.8779H4.31038L3.03097 48.3711H2.14757ZM9.53462 48.3711V42.5224H10.4332V48.3711H9.53462ZM9.99155 41.5476C9.81639 41.5476 9.66535 41.4879 9.53843 41.3686C9.41404 41.2493 9.35185 41.1059 9.35185 40.9384C9.35185 40.7708 9.41404 40.6274 9.53843 40.5081C9.66535 40.3888 9.81639 40.3291 9.99155 40.3291C10.1667 40.3291 10.3165 40.3888 10.4409 40.5081C10.5678 40.6274 10.6313 40.7708 10.6313 40.9384C10.6313 41.1059 10.5678 41.2493 10.4409 41.3686C10.3165 41.4879 10.1667 41.5476 9.99155 41.5476ZM14.6227 42.5224V43.2839H11.5918V42.5224H14.6227ZM12.4752 41.1211H13.3738V46.6957C13.3738 46.9495 13.4106 47.1399 13.4842 47.2668C13.5604 47.3912 13.6568 47.475 13.7736 47.5182C13.8929 47.5588 14.0186 47.5791 14.1506 47.5791C14.2496 47.5791 14.3308 47.574 14.3943 47.5638C14.4577 47.5512 14.5085 47.541 14.5466 47.5334L14.7293 48.3406C14.6684 48.3635 14.5834 48.3863 14.4742 48.4092C14.3651 48.4346 14.2267 48.4472 14.0592 48.4472C13.8053 48.4472 13.5566 48.3927 13.3129 48.2835C13.0717 48.1744 12.8712 48.0081 12.7112 47.7847C12.5539 47.5613 12.4752 47.2795 12.4752 46.9394V41.1211ZM16.9988 44.8527V48.3711H16.1001V40.5728H16.9988V43.4362H17.0749C17.212 43.1342 17.4176 42.8943 17.6918 42.7166C17.9685 42.5363 18.3366 42.4462 18.796 42.4462C19.1946 42.4462 19.5436 42.5262 19.8432 42.6861C20.1427 42.8435 20.375 43.0859 20.54 43.4134C20.7075 43.7383 20.7913 44.1521 20.7913 44.6547V48.3711H19.8927V44.7156C19.8927 44.2511 19.7721 43.8919 19.5309 43.6381C19.2923 43.3817 18.961 43.2535 18.5371 43.2535C18.2426 43.2535 17.9786 43.3157 17.7451 43.4401C17.5141 43.5644 17.3313 43.7459 17.1968 43.9846C17.0648 44.2232 16.9988 44.5126 16.9988 44.8527Z" fill="#575756"/>
</svg>
