<svg width="18" height="14" viewBox="0 0 18 14" fill="none" xmlns="http://www.w3.org/2000/svg">
<g clip-path="url(#clip0_4017_5326)">
<path d="M4.09092 13.5032V6.54862L1.93409 4.57545L0 3.48047V12.2759C0 12.955 0.550195 13.5032 1.2273 13.5032H4.09092Z" fill="#4285F4"/>
<path d="M13.9092 13.5032H16.7728C17.4519 13.5032 18.0001 12.9529 18.0001 12.2759V3.48047L15.8094 4.73463L13.9092 6.54855V13.5032Z" fill="#34A853"/>
<path d="M4.09134 6.54862L3.79785 3.83126L4.09134 1.23047L9.00041 4.91231L13.9095 1.23047L14.2378 3.69084L13.9095 6.54862L9.00041 10.2305L4.09134 6.54862Z" fill="#EA4335"/>
<path d="M13.9092 1.23073V6.54888L18.0001 3.48073V1.84435C18.0001 0.32665 16.2676 -0.538545 15.0547 0.37165L13.9092 1.23073Z" fill="#FBBC04"/>
<path d="M0 3.48076L1.88149 4.89193L4.09092 6.54892V1.23076L2.94539 0.371682C1.73039 -0.538583 0 0.326682 0 1.84431V3.48069V3.48076Z" fill="#C5221F"/>
</g>
<defs>
<clipPath id="clip0_4017_5326">
<rect width="18" height="13.5703" fill="white"/>
</clipPath>
</defs>
</svg>
