<svg width="33" height="26" viewBox="0 0 33 26" fill="none" xmlns="http://www.w3.org/2000/svg">
<path d="M32.0933 5.13784C31.6186 4.84392 31.1297 4.54216 30.6291 4.26567V3.51277C30.6293 3.2514 30.4931 3.00877 30.2698 2.87273C28.275 1.6571 25.9923 0.9952 23.6565 0.955066C21.3207 0.914931 19.0168 1.49787 16.9815 2.64437C14.9461 1.49788 12.642 0.914931 10.3065 0.955066C7.97107 0.9952 5.6882 1.6571 3.69318 2.87273C3.20814 3.16822 3.34975 3.78349 3.33391 4.2663C2.83482 4.54171 2.34511 4.8432 1.87097 5.1367C1.48651 5.37487 0.991671 5.57023 0.996124 6.0941V24.2745C0.996124 24.5452 1.14242 24.7952 1.37858 24.9277C1.61475 25.0603 1.90399 25.0552 2.13548 24.9143C8.40456 21.0937 9.6537 20.4724 16.9264 20.9543H16.9318H16.9358C16.9507 20.9552 16.9659 20.9559 16.9813 20.9559C16.9938 20.9559 17.0067 20.9552 17.0194 20.9545H17.0288C17.0571 20.9525 17.0852 20.9492 17.1131 20.9441C21.4114 20.1796 26.0386 21.3861 31.827 24.9141V24.9143C32.0584 25.0552 32.3477 25.0604 32.5839 24.9277C32.82 24.795 32.9663 24.5452 32.9663 24.2745V6.09411C32.9685 5.56893 32.469 5.37044 32.0928 5.13785L32.0933 5.13784ZM17.7312 3.94208C19.4704 2.96019 21.4337 2.44415 23.431 2.44415C25.4283 2.44415 27.3917 2.9602 29.1307 3.94208V18.9477C27.3526 18.0918 25.4044 17.6473 23.431 17.6473C21.4574 17.6473 19.5095 18.0918 17.7312 18.9477V3.94208ZM4.83276 3.94208C6.57201 2.96019 8.53535 2.44438 10.5324 2.44438C12.5297 2.44438 14.4931 2.9602 16.2323 3.94208V18.9477C14.4541 18.0918 12.506 17.6473 10.5324 17.6473C8.55904 17.6473 6.61101 18.0918 4.83276 18.9477V3.94208ZM2.49497 22.9434V6.51343L2.65977 6.41151C2.88189 6.27414 3.10758 6.13453 3.33412 5.99805V20.2072C3.33412 20.4782 3.48019 20.728 3.71658 20.8606C3.95275 20.9931 4.24199 20.988 4.47348 20.847C6.91072 19.3551 9.81296 18.8154 12.6237 19.331C11.2129 19.3754 9.96699 19.5375 8.76541 19.8792C6.82058 20.4324 5.01755 21.4237 2.49462 22.9438L2.49497 22.9434ZM31.4683 22.961C28.7556 21.4082 26.2757 20.361 23.9192 19.7709V19.7711C23.097 19.5633 22.2618 19.4112 21.4193 19.3157C24.2062 18.8249 27.0766 19.3693 29.4901 20.8469C29.7214 20.9878 30.0109 20.993 30.247 20.8603C30.4832 20.7276 30.6295 20.4778 30.6293 20.2069V5.99826C30.9123 6.16886 31.1897 6.34125 31.4685 6.51363L31.4683 22.961Z" fill="#64748B"/>
</svg>
