<svg width="20" height="20" viewBox="0 0 20 20" fill="none" xmlns="http://www.w3.org/2000/svg">
<path d="M19.4536 17.8596C19.4536 18.5001 18.9345 19.0192 18.294 19.0192H2.05897C1.41849 19.0192 0.899353 18.5001 0.899353 17.8596C0.899353 17.2191 1.41849 16.7 2.05897 16.7H18.2944C18.9347 16.7 19.4539 17.2191 19.4539 17.8596H19.4536ZM9.35623 14.1861C9.58277 14.4127 9.87943 14.5259 10.1764 14.5259C10.473 14.5259 10.7699 14.4127 10.9965 14.1861L15.1052 10.0774C15.5582 9.62447 15.5582 8.89023 15.1052 8.43741C14.6522 7.98444 13.918 7.98444 13.4652 8.43741L11.3359 10.5665V1.62446C11.3359 0.983979 10.8168 0.464844 10.1763 0.464844C9.53581 0.464844 9.01668 0.983979 9.01668 1.62446V10.5665L6.88771 8.43741C6.43474 7.98444 5.7005 7.98444 5.24768 8.43741C4.79471 8.89037 4.79471 9.62461 5.24768 10.0774L9.35623 14.1861Z" fill="#64748B"/>
</svg>
