<svg width="20" height="20" viewBox="0 0 20 20" fill="none" xmlns="http://www.w3.org/2000/svg">
<path d="M0.899318 1.83962C0.899318 1.19914 1.41845 0.680006 2.05893 0.680006L18.294 0.680008C18.9345 0.680008 19.4536 1.19914 19.4536 1.83962C19.4536 2.48011 18.9345 2.99924 18.294 2.99924L2.05859 2.99924C1.41824 2.99924 0.899108 2.48011 0.899109 1.83962L0.899318 1.83962ZM10.9967 5.51309C10.7702 5.28655 10.4735 5.17335 10.1766 5.17335C9.87994 5.17335 9.58302 5.28655 9.35647 5.51309L5.24778 9.62178C4.79481 10.0747 4.79481 10.809 5.24778 11.2618C5.70074 11.7148 6.43498 11.7148 6.88781 11.2618L9.01706 9.1327L9.01706 18.0748C9.01706 18.7152 9.53619 19.2344 10.1767 19.2344C10.8172 19.2344 11.3363 18.7152 11.3363 18.0748L11.3363 9.1327L13.4653 11.2618C13.9182 11.7148 14.6525 11.7148 15.1053 11.2618C15.5583 10.8088 15.5583 10.0746 15.1053 9.62178L10.9967 5.51309Z" fill="#64748B"/>
</svg>
